<?xml version="1.0" standalone="no"?>
<!DOCTYPE svg PUBLIC "-//W3C//DTD SVG 20010904//EN"
 "http://www.w3.org/TR/2001/REC-SVG-20010904/DTD/svg10.dtd">
<svg version="1.0" xmlns="http://www.w3.org/2000/svg"
 width="205.000000pt" height="205.000000pt" viewBox="0 0 205.000000 205.000000"
 preserveAspectRatio="xMidYMid meet">
<metadata>
Created by potrace 1.14, written by Peter Selinger 2001-2017
</metadata>
<g transform="translate(0.000000,205.000000) scale(0.100000,-0.100000)"
fill="#000000" stroke="none">
<path d="M802 2023 l-72 -16 5 -31 c3 -17 7 -53 10 -79 l4 -48 -57 -25 -57
-25 -30 38 c-16 20 -40 49 -51 62 l-22 25 -70 -47 c-39 -26 -74 -52 -77 -57
-3 -5 11 -35 30 -67 19 -32 35 -62 35 -68 0 -5 -19 -28 -42 -52 l-41 -42 -65
34 c-35 19 -68 35 -73 35 -4 0 -31 -33 -58 -74 l-50 -73 65 -52 c64 -51 64
-52 50 -79 -8 -15 -20 -42 -26 -59 -7 -18 -15 -31 -19 -29 -3 2 -38 7 -78 10
l-71 7 -17 -78 c-9 -43 -18 -83 -20 -90 -3 -8 25 -21 73 -35 l77 -24 0 -64 0
-63 -73 -21 -74 -21 6 -40 c3 -22 10 -64 16 -93 l12 -52 61 6 c34 4 70 7 80 8
14 1 25 -15 42 -57 l24 -57 -57 -46 c-31 -25 -58 -50 -60 -54 -2 -6 65 -111
95 -150 2 -2 12 1 22 7 9 6 41 23 69 38 l51 27 45 -43 45 -44 -34 -63 c-19
-34 -35 -68 -35 -75 0 -7 33 -33 73 -59 l72 -47 30 36 c17 20 39 47 51 61 l20
24 60 -21 61 -22 -9 -57 c-15 -94 -11 -104 48 -117 28 -6 68 -11 89 -11 l39 1
20 70 21 69 63 2 62 2 22 -75 22 -75 49 6 c28 4 70 11 93 17 43 11 44 12 39
48 -3 20 -7 56 -8 79 l-2 44 57 23 c45 19 59 21 65 11 16 -27 87 -106 95 -106
10 0 148 91 148 98 0 3 -16 34 -36 69 -19 35 -32 68 -28 74 4 6 23 28 42 49
l36 37 72 -39 72 -38 50 77 c48 73 50 79 33 93 -23 19 -80 63 -94 72 -8 5 -5
25 10 65 l20 58 44 0 c24 1 60 -3 79 -7 19 -4 36 -6 37 -4 2 1 11 44 21 94
l18 92 -40 11 c-23 6 -57 15 -78 21 l-36 11 -1 63 0 63 57 16 c76 21 104 33
98 43 -3 5 -7 21 -10 37 -24 130 -26 135 -54 129 -15 -2 -51 -6 -80 -7 l-53
-2 -24 55 -24 55 32 25 c17 14 45 37 61 51 l30 26 -44 68 c-25 38 -48 73 -51
78 -4 6 -36 -7 -77 -30 l-70 -41 -45 47 -46 46 26 45 c59 102 61 88 -20 142
-40 26 -76 48 -82 47 -5 0 -30 -26 -55 -58 l-44 -58 -58 21 -59 21 3 84 c3 77
1 84 -17 87 -11 2 -48 8 -83 14 -34 6 -66 9 -70 6 -4 -2 -16 -36 -27 -76 l-19
-71 -65 3 -64 3 -12 45 c-7 25 -16 57 -19 73 -7 31 -16 32 -124 10z"/>
</g>
</svg>
